HIERARCHY
ROOT Hips
{
  OFFSET -31.5692 30.0904 122.763
  CHANNELS 6 Xposition Yposition Zposition Zrotation Xrotation Yrotation
  JOINT LeftUpLeg
  {
    OFFSET 8.64259 1.95398 -2.38835
    CHANNELS 3 Zrotation Xrotation Yrotation
    JOINT LeftLeg
    {
      OFFSET 43.7702 0 0
      CHANNELS 3 Zrotation Xrotation Yrotation
      JOINT LeftFoot
      {
        OFFSET 40.6238 0 0
        CHANNELS 3 Zrotation Xrotation Yrotation
        JOINT LeftToeBase
        {
          OFFSET 12.7242 0 0
          CHANNELS 3 Zrotation Xrotation Yrotation
          End Site
          {
            OFFSET 0 0 0
          }
        }
      }
    }
  }
  JOINT RightUpLeg
  {
    OFFSET -8.2249 1.95398 -2.59336
    CHANNELS 3 Zrotation Xrotation Yrotation
    JOINT RightLeg
    {
      OFFSET 43.5653 0 0
      CHANNELS 3 Zrotation Xrotation Yrotation
      JOINT RightFoot
      {
        OFFSET 40.6238 0 0
        CHANNELS 3 Zrotation Xrotation Yrotation
        JOINT RightToeBase
        {
          OFFSET 12.7242 0 0
          CHANNELS 3 Zrotation Xrotation Yrotation
          End Site
          {
            OFFSET 0 0 0
          }
        }
      }
    }
  }
  JOINT Spine
  {
    OFFSET 0.165834 0.87714 6.61349
    CHANNELS 3 Zrotation Xrotation Yrotation
    JOINT Spine1
    {
      OFFSET 7.38963 1.71661e-005 0
      CHANNELS 3 Zrotation Xrotation Yrotation
      JOINT Spine2
      {
        OFFSET 11.9445 1.14441e-005 0
        CHANNELS 3 Zrotation Xrotation Yrotation
        JOINT Spine3
        {
          OFFSET 14.7254 4.19617e-005 0
          CHANNELS 3 Zrotation Xrotation Yrotation
          JOINT Spine4
          {
            OFFSET 10.9679 0 0
            CHANNELS 3 Zrotation Xrotation Yrotation
            JOINT RightShoulder
            {
              OFFSET 2.46616 -1.6653 3.69651
              CHANNELS 3 Zrotation Xrotation Yrotation
              JOINT RightArm
              {
                OFFSET 13.0012 0 0
                CHANNELS 3 Zrotation Xrotation Yrotation
                JOINT RightForeArm
                {
                  OFFSET 28.7848 1.62311e-005 0
                  CHANNELS 3 Zrotation Xrotation Yrotation
                  JOINT RightHand
                  {
                    OFFSET 26.5688 1.62095e-005 0
                    CHANNELS 3 Zrotation Xrotation Yrotation
                    End Site
                    {
                      OFFSET 0 0 0
                    }
                  }
                }
              }
            }
            JOINT LeftShoulder
            {
              OFFSET 2.38034 -1.29275 -3.7523
              CHANNELS 3 Zrotation Xrotation Yrotation
              JOINT LeftArm
              {
                OFFSET 16.3182 6.07031e-005 0
                CHANNELS 3 Zrotation Xrotation Yrotation
                JOINT LeftForeArm
                {
                  OFFSET 27.0901 0 0
                  CHANNELS 3 Zrotation Xrotation Yrotation
                  JOINT LeftHand
                  {
                    OFFSET 24.5451 1.51738e-005 0
                    CHANNELS 3 Zrotation Xrotation Yrotation
                    End Site
                    {
                      OFFSET 0 0 0
                    }
                  }
                }
              }
            }
            JOINT Neck
            {
              OFFSET 5.0226 -0.0266342 0
              CHANNELS 3 Zrotation Xrotation Yrotation
              JOINT Head
              {
                OFFSET 6.69364 2.86102e-005 0
                CHANNELS 3 Zrotation Xrotation Yrotation
                End Site
                {
                  OFFSET 0 0 0
                }
              }
            }
          }
        }
      }
    }
  }
}
MOTION
Frames:	9
Frame Time:	0.0416667
177.381 103.553 -184.893 97.4258 -43.4839 96.7839 -172.207 -0.191866 91.7862 -17.2097 16.9963 0.0388791 72.3689 7.999 -0.349009 18.5918 -8.95319 8.52182 173.434 -1.74669 91.6796 -12.7604 2.95832 0.908661 67.1162 -4.71472 0.685834 24.1988 1.43672 2.86875 0.348997 7.6105 -89.3355 11.6461 1.00578 1.2197 -0.0250206 1.05848 1.17425 -22.5569 0.592754 1.46555 -2.54427 0.59275 1.46554 90.0705 -30.0267 -106.609 42.5885 -8.05295 -1.4567 6.44831 -31.4426 -14.4484 -22.6829 0.0494027 -11.7383 -86.2015 -47.1425 83.9845 -25.5167 11.6388 -7.87389 -3.65857 7.98179 -4.87072 3.10411 -0.408388 -16.8177 2.22463 -10.9819 -13.3951 -3.26729 -8.73764 -4.55482 
176.264 103.186 -184.562 95.9996 -43.8289 97.7561 -170.695 4.11406 94.6656 -21.6709 18.3648 -0.694263 73.9258 8.66066 -0.79618 17.5658 -8.85371 7.05467 172.883 3.74286 94.2103 -21.4329 0.886803 2.61487 67.7937 -5.15593 -0.0268385 25.0759 1.04245 2.90144 0.385831 7.68271 -89.3025 11.5008 1.09352 1.27775 -0.170314 1.14871 1.22839 -22.702 0.659001 1.54727 -2.68939 0.659002 1.54727 89.9224 -29.4879 -107.109 42.5519 -7.67916 -1.58594 5.84028 -30.3581 -14.9062 -24.8744 0.306056 -12.3463 -86.2321 -47.3921 83.9767 -23.9714 10.8124 -6.58976 -3.21983 7.692 -2.70097 2.27732 -0.386591 -18.4642 7.16359 -11.3555 -16.0888 -4.32313 -7.88872 -4.91388 
175.199 103.291 -184.179 94.6717 -43.2168 99.2249 -169.71 6.99471 97.9215 -23.5081 20.6622 -0.64193 73.9989 8.95905 -0.630941 19.3314 -8.2852 8.06613 169.695 8.33945 91.7336 -22.5565 0.0929421 5.56037 63.6868 -2.16894 -0.473836 27.8809 -0.636791 5.09252 0.293055 7.80069 -89.3493 11.266 0.886152 1.20714 -0.40516 0.938423 1.16697 -22.9367 0.48243 1.41761 -2.92404 0.48243 1.41761 89.0376 -30.2519 -108.56 42.0048 -6.70348 -0.833249 4.61581 -28.8309 -16.0484 -24.0685 0.342436 -12.4254 -86.7013 -46.6101 83.1158 -22.4666 11.0803 -5.84453 -4.60625 5.45761 -0.22192 3.74477 -0.678792 -18.9981 11.0814 -12.35 -18.3962 -5.20158 -7.68206 -5.08092 
174.466 103.51 -183.701 93.2393 -41.1649 100.212 -169.464 9.16341 100.122 -24.3127 22.5955 0.138209 74.0368 9.43483 -1.19776 19.09 -8.46738 8.14346 168.339 10.4551 85.8791 -20.5355 4.26433 4.50718 61.3465 -0.091092 0.105773 27.1933 -0.324411 4.94903 0.365807 7.80533 -89.5352 11.259 0.944281 0.832451 -0.411879 0.98001 0.790075 -22.9464 0.650446 1.07774 -2.93373 0.650458 1.07774 89.8088 -29.8748 -107.186 42.402 -7.01735 0.686977 4.86527 -29.3205 -16.2938 -23.1691 0.243416 -12.2372 -86.1931 -45.2938 83.697 -22.2415 11.267 -5.23439 -4.42532 3.98525 -1.47382 3.63886 -0.71277 -19.0755 10.9634 -14.0447 -20.5382 -5.04989 -8.89749 -3.60029 
173.619 103.214 -182.549 92.6641 -39.0129 102.167 -168.786 12.4105 103.351 -28.1114 25.9367 0.875323 75.5028 10.7678 -1.75298 19.2866 -8.92679 9.35138 168.186 10.7548 79.0578 -21.0861 -3.02456 -0.0221362 63.5044 -1.15129 -0.928351 24.406 1.06207 4.02577 0.53482 7.75975 -89.8882 11.3543 1.1164 0.110818 -0.316198 1.12019 0.0615664 -22.8547 1.03149 0.441267 -2.84207 1.03148 0.441248 90.5041 -29.0009 -106.132 42.3294 -5.18752 3.22572 4.15398 -24.9985 -16.6437 -22.5956 1.34188 -17.8799 -85.5448 -44.5153 84.6069 -20.5605 11.343 -4.68528 -4.56424 2.79206 -2.31744 3.75402 -0.790397 -19.5654 6.38797 -14.4919 -22.3228 -3.01669 -9.93847 -3.78783 
172.432 102.3 -180.409 92.4785 -37.19 104.436 -168.336 15.9693 107.424 -33.2301 29.4127 2.01441 77.5468 12.4822 -1.66641 21.1768 -7.79739 9.43324 167.028 9.31904 73.9238 -21.9064 -11.3246 -2.68843 63.3611 -0.717466 -0.330243 24.8649 0.799147 4.30098 0.573328 7.76304 -90.2675 11.3495 1.01622 -0.634234 -0.321234 0.987322 -0.67836 -22.8591 1.15984 -0.299472 -2.84647 1.15983 -0.299475 90.804 -28.2531 -105.807 40.5671 -3.98478 5.32634 3.62121 -25.7885 -16.6388 -21.5278 0.0266593 -10.4517 -84.6758 -43.5032 85.8624 -19.1636 8.93522 -2.49584 -3.26614 3.68474 -3.04544 3.27734 -0.695305 -19.4762 4.63248 -15.1244 -25.1753 -3.50707 -10.3957 -3.32474 
169.794 100.458 -177.997 90.8427 -36.6818 105.485 -169.844 22.2443 111.348 -40.8109 30.4485 3.86058 80.1142 14.1486 -2.24669 22.8391 -6.84722 9.57732 166.637 10.4521 71.9157 -23.744 -17.3195 -3.55467 63.2593 -0.622084 -0.126037 24.7664 0.941453 3.8831 0.589621 7.68374 -90.5992 11.5126 0.892861 -1.28518 -0.158699 0.835433 -1.32323 -22.6934 1.23782 -0.957448 -2.68074 1.23783 -0.957445 92.039 -27.0924 -103.675 38.758 -4.3912 6.19296 3.63929 -25.4459 -17.6459 -22.6318 0.573462 -13.4185 -84.4407 -41.2186 85.9179 -18.4481 7.63032 0.0233837 -2.45538 3.7046 -3.42849 2.62824 -0.581187 -19.1226 5.48194 -16.4236 -28.2842 -4.39755 -10.884 -2.34878 
166.05 97.9091 -174.755 89.3204 -35.71 106.447 -172.623 28.7686 116.457 -48.3926 31.674 6.14316 82.6759 15.6194 -2.94755 24.007 -5.97116 9.16862 166.908 10.2991 72.5848 -24.39 -21.6096 -3.90914 62.6224 -0.430064 0.965449 23.9579 1.42155 3.35786 0.434835 7.56274 -90.9395 11.7484 0.423762 -1.91678 0.0761205 0.338998 -1.93359 -22.4502 0.980171 -1.70092 -2.43753 0.980157 -1.70094 92.3501 -27.9333 -102.745 36.7466 -2.59609 8.51585 2.00714 -24.368 -19.2168 -22.535 0.761692 -14.2976 -84.9575 -39.1107 84.7136 -17.7586 7.73609 1.44585 -2.75378 3.48224 -2.16906 3.08026 -0.569178 -17.5691 4.775 -17.7303 -32.2279 -4.93582 -11.6402 -1.29797 
161.599 94.7892 -171.036 90.4217 -36.4867 106.045 -174.515 31.598 119.865 -53.9098 31.1707 7.6026 84.381 16.3576 -3.61462 27.737 -4.80438 11.9473 167.82 11.4367 72.2684 -28.2241 -26.7688 -5.81406 59.5795 1.15208 2.0933 25.2003 0.965089 2.99048 0.272935 7.65047 -90.9528 11.5699 0.0969975 -1.90849 -0.102476 0.0129275 -1.91092 -22.6274 0.665995 -1.79118 -2.61479 0.666001 -1.79118 92.344 -29.328 -102.298 36.0295 -1.09395 9.83777 0.769176 -22.0802 -20.5739 -23.0967 0.781784 -13.642 -85.3607 -38.5686 83.9269 -16.1828 7.51646 -0.0807484 -3.0606 3.19179 -0.515002 3.46392 -0.559106 -16.3768 1.4778 -17.0292 -34.7595 -2.94769 -11.5535 -0.96816 
